<svg width="36" height="36" viewBox="0 0 36 36" fill="none" xmlns="http://www.w3.org/2000/svg">
<path d="M23.7403 6.70245C25.3065 10.156 27.2285 14.3942 28.6714 16.0777C28.9531 15.4236 28.9229 14.3269 29.2449 11.6504C29.5357 9.23355 31.529 9.00418 32.3842 9.17523C34.2758 9.56965 34.852 11.4869 34.789 12.1938C34.6883 13.3207 34.6835 13.2823 34.477 16.0071C34.1751 19.9917 35.7147 23.0001 35.8555 26.4111C35.8555 32.8406 30.2209 35.9999 26.2766 35.9999C23.1213 35.9999 19.9645 33.981 18.7807 32.9714L12.8643 27.5682C12.1399 27.0047 10.3493 25.1456 9.56393 24.0767C7.42278 21.1629 10.5199 19.1565 12.2606 19.6596C12.1237 19.555 11.298 18.2141 10.9023 17.5567C9.83974 15.4236 10.9023 14.0027 11.687 13.6125C13.468 12.727 14.7761 13.7232 15.1885 14.2665C15.031 13.9982 14.5366 12.9142 13.7397 10.926C12.9429 8.93776 14.226 7.70956 14.9672 7.34397C16.5771 6.5994 18.1065 7.54521 18.4888 8.39041C18.6761 8.80429 19.6861 11.0163 20.1259 11.9918C19.7944 11.1829 19.1942 9.57584 18.9819 8.83312C18.5593 7.08237 19.5755 5.88169 20.2194 5.57312C21.1148 5.1441 22.9826 5.03172 23.721 6.6598L23.7403 6.70245Z" fill="url(#paint0_radial_16_2191)"/>
<path d="M23.7403 6.70245C25.3065 10.156 27.2285 14.3942 28.6715 16.0777C28.9531 15.4236 28.9229 14.3269 29.2449 11.6504C29.5357 9.23355 31.5289 9.00418 32.3842 9.17523C34.2758 9.56965 34.8521 11.4869 34.7889 12.1938C34.6884 13.3207 34.6835 13.2823 34.4771 16.0071C34.1752 19.9917 35.7146 23.0001 35.8555 26.4111C35.8555 32.8406 30.2209 35.9999 26.2767 35.9999C23.1214 35.9999 19.9646 33.981 18.7806 32.9714L12.8643 27.5682C12.1399 27.0047 10.3493 25.1456 9.56392 24.0767C7.42277 21.1629 10.52 19.1565 12.2605 19.6596C12.1236 19.555 11.2979 18.2141 10.9022 17.5567C9.83973 15.4236 10.9022 14.0027 11.6871 13.6125C13.468 12.727 14.776 13.7232 15.1886 14.2665C15.0309 13.9982 14.5366 12.9142 13.7397 10.926C12.9428 8.93776 14.226 7.70956 14.9672 7.34397C16.5772 6.5994 18.1066 7.54521 18.4889 8.39041C18.6761 8.80429 19.686 11.0163 20.1258 11.9918C19.7944 11.1829 19.1941 9.57584 18.9818 8.83312C18.5593 7.08237 19.5754 5.88169 20.2194 5.57312C21.1149 5.1441 22.9826 5.03172 23.7209 6.6598L23.7403 6.70245Z" fill="url(#paint1_radial_16_2191)"/>
<path d="M34.789 12.1938C34.6883 13.3207 34.6834 13.2824 34.477 16.0072C34.3703 17.4151 35.1359 22.6002 35.1359 22.6002C33.2753 23.2077 29.2449 22.4022 28.6714 16.0776C28.9531 15.4237 28.9229 14.327 29.2449 11.6505C29.5356 9.23362 31.529 9.00425 32.3842 9.1753C34.2758 9.56972 34.852 11.487 34.789 12.1938Z" fill="url(#paint2_radial_16_2191)"/>
<path d="M34.789 12.1938C34.6883 13.3207 34.6834 13.2824 34.477 16.0072C34.3703 17.4151 35.1359 22.6002 35.1359 22.6002C33.2753 23.2077 29.2449 22.4022 28.6714 16.0776C28.9531 15.4237 28.9229 14.327 29.2449 11.6505C29.5356 9.23362 31.529 9.00425 32.3842 9.1753C34.2758 9.56972 34.852 11.487 34.789 12.1938Z" fill="url(#paint3_radial_16_2191)"/>
<path d="M34.789 12.1938C34.6883 13.3207 34.6834 13.2824 34.477 16.0072C34.3703 17.4151 35.1359 22.6002 35.1359 22.6002C33.2753 23.2077 29.2449 22.4022 28.6714 16.0776C28.9531 15.4237 28.9229 14.327 29.2449 11.6505C29.5356 9.23362 31.529 9.00425 32.3842 9.1753C34.2758 9.56972 34.852 11.487 34.789 12.1938Z" fill="url(#paint4_radial_16_2191)"/>
<path d="M23.7403 6.70247C25.3065 10.156 27.2286 14.3942 28.6715 16.0777C28.4457 18.0041 26.7239 18.9251 25.2404 18.5803C23.3697 18.0372 22.6601 16.7096 22.6601 16.7096C22.6601 16.7096 22.1715 15.9533 21.6946 15.1205C21.1429 14.1571 21.2435 14.1787 20.3202 12.4352C20.1391 12.0931 19.2503 9.77222 18.982 8.83312C18.5593 7.08237 19.5756 5.88169 20.2195 5.57312C21.1149 5.1441 22.9826 5.03172 23.721 6.6598L23.7403 6.70247Z" fill="url(#paint5_radial_16_2191)"/>
<path d="M23.7403 6.70247C25.3065 10.156 27.2286 14.3942 28.6715 16.0777C28.4457 18.0041 26.7239 18.9251 25.2404 18.5803C23.3697 18.0372 22.6601 16.7096 22.6601 16.7096C22.6601 16.7096 22.1715 15.9533 21.6946 15.1205C21.1429 14.1571 21.2435 14.1787 20.3202 12.4352C20.1391 12.0931 19.2503 9.77222 18.982 8.83312C18.5593 7.08237 19.5756 5.88169 20.2195 5.57312C21.1149 5.1441 22.9826 5.03172 23.721 6.6598L23.7403 6.70247Z" fill="url(#paint6_linear_16_2191)"/>
<path d="M23.7403 6.70247C25.3065 10.156 27.2286 14.3942 28.6715 16.0777C28.4457 18.0041 26.7239 18.9251 25.2404 18.5803C23.3697 18.0372 22.6601 16.7096 22.6601 16.7096C22.6601 16.7096 22.1715 15.9533 21.6946 15.1205C21.1429 14.1571 21.2435 14.1787 20.3202 12.4352C20.1391 12.0931 19.2503 9.77222 18.982 8.83312C18.5593 7.08237 19.5756 5.88169 20.2195 5.57312C21.1149 5.1441 22.9826 5.03172 23.721 6.6598L23.7403 6.70247Z" fill="url(#paint7_radial_16_2191)"/>
<path d="M23.7403 6.70247C25.3065 10.156 27.2286 14.3942 28.6715 16.0777C28.4457 18.0041 26.7239 18.9251 25.2404 18.5803C23.3697 18.0372 22.6601 16.7096 22.6601 16.7096C22.6601 16.7096 22.1715 15.9533 21.6946 15.1205C21.1429 14.1571 21.2435 14.1787 20.3202 12.4352C20.1391 12.0931 19.2503 9.77222 18.982 8.83312C18.5593 7.08237 19.5756 5.88169 20.2195 5.57312C21.1149 5.1441 22.9826 5.03172 23.721 6.6598L23.7403 6.70247Z" fill="url(#paint8_radial_16_2191)"/>
<path d="M23.7403 6.70247C25.3065 10.156 27.2286 14.3942 28.6715 16.0777C28.4457 18.0041 26.7239 18.9251 25.2404 18.5803C23.3697 18.0372 22.6601 16.7096 22.6601 16.7096C22.6601 16.7096 22.1715 15.9533 21.6946 15.1205C21.1429 14.1571 21.2435 14.1787 20.3202 12.4352C20.1391 12.0931 19.2503 9.77222 18.982 8.83312C18.5593 7.08237 19.5756 5.88169 20.2195 5.57312C21.1149 5.1441 22.9826 5.03172 23.721 6.6598L23.7403 6.70247Z" fill="url(#paint9_linear_16_2191)"/>
<path d="M18.4889 8.3904C18.7407 8.94712 20.4811 12.7572 20.3201 12.4352C20.7882 13.4905 22.2376 16.0659 22.6601 16.7699C23.5915 18.3224 22.5402 19.614 21.861 20.0084C19.9088 21.1422 18.7878 19.6966 18.7878 19.6966C17.7583 18.1872 16.897 16.9309 15.1973 14.2556C14.7877 13.4846 14.0408 11.7613 13.7398 10.9259C12.9967 8.86398 14.226 7.70955 14.9673 7.34398C16.5771 6.5994 18.1065 7.54522 18.4889 8.3904Z" fill="url(#paint10_radial_16_2191)"/>
<path d="M18.4889 8.3904C18.7407 8.94712 20.4811 12.7572 20.3201 12.4352C20.7882 13.4905 22.2376 16.0659 22.6601 16.7699C23.5915 18.3224 22.5402 19.614 21.861 20.0084C19.9088 21.1422 18.7878 19.6966 18.7878 19.6966C17.7583 18.1872 16.897 16.9309 15.1973 14.2556C14.7877 13.4846 14.0408 11.7613 13.7398 10.9259C12.9967 8.86398 14.226 7.70955 14.9673 7.34398C16.5771 6.5994 18.1065 7.54522 18.4889 8.3904Z" fill="url(#paint11_linear_16_2191)"/>
<path d="M18.4889 8.3904C18.7407 8.94712 20.4811 12.7572 20.3201 12.4352C20.7882 13.4905 22.2376 16.0659 22.6601 16.7699C23.5915 18.3224 22.5402 19.614 21.861 20.0084C19.9088 21.1422 18.7878 19.6966 18.7878 19.6966C17.7583 18.1872 16.897 16.9309 15.1973 14.2556C14.7877 13.4846 14.0408 11.7613 13.7398 10.9259C12.9967 8.86398 14.226 7.70955 14.9673 7.34398C16.5771 6.5994 18.1065 7.54522 18.4889 8.3904Z" fill="url(#paint12_radial_16_2191)"/>
<path d="M18.4889 8.3904C18.7407 8.94712 20.4811 12.7572 20.3201 12.4352C20.7882 13.4905 22.2376 16.0659 22.6601 16.7699C23.5915 18.3224 22.5402 19.614 21.861 20.0084C19.9088 21.1422 18.7878 19.6966 18.7878 19.6966C17.7583 18.1872 16.897 16.9309 15.1973 14.2556C14.7877 13.4846 14.0408 11.7613 13.7398 10.9259C12.9967 8.86398 14.226 7.70955 14.9673 7.34398C16.5771 6.5994 18.1065 7.54522 18.4889 8.3904Z" fill="url(#paint13_radial_16_2191)"/>
<path d="M18.4889 8.3904C18.7407 8.94712 20.4811 12.7572 20.3201 12.4352C20.7882 13.4905 22.2376 16.0659 22.6601 16.7699C23.5915 18.3224 22.5402 19.614 21.861 20.0084C19.9088 21.1422 18.7878 19.6966 18.7878 19.6966C17.7583 18.1872 16.897 16.9309 15.1973 14.2556C14.7877 13.4846 14.0408 11.7613 13.7398 10.9259C12.9967 8.86398 14.226 7.70955 14.9673 7.34398C16.5771 6.5994 18.1065 7.54522 18.4889 8.3904Z" fill="url(#paint14_radial_16_2191)"/>
<path d="M18.4889 8.3904C18.7407 8.94712 20.4811 12.7572 20.3201 12.4352C20.7882 13.4905 22.2376 16.0659 22.6601 16.7699C23.5915 18.3224 22.5402 19.614 21.861 20.0084C19.9088 21.1422 18.7878 19.6966 18.7878 19.6966C17.7583 18.1872 16.897 16.9309 15.1973 14.2556C14.7877 13.4846 14.0408 11.7613 13.7398 10.9259C12.9967 8.86398 14.226 7.70955 14.9673 7.34398C16.5771 6.5994 18.1065 7.54522 18.4889 8.3904Z" fill="url(#paint15_linear_16_2191)"/>
<path d="M11.6871 13.6125C13.4681 12.7271 14.776 13.7232 15.1886 14.2665C16.4745 16.2067 18.0084 18.4131 18.7173 19.586C20.6082 22.7139 16.7361 24.0717 16.7361 24.0717C13.1756 20.0588 12.517 19.8557 12.2605 19.6597C12.1237 19.555 11.298 18.2141 10.9022 17.5568C9.8397 15.4237 10.9022 14.0027 11.6871 13.6125Z" fill="url(#paint16_radial_16_2191)"/>
<path d="M11.6871 13.6125C13.4681 12.7271 14.776 13.7232 15.1886 14.2665C16.4745 16.2067 18.0084 18.4131 18.7173 19.586C20.6082 22.7139 16.7361 24.0717 16.7361 24.0717C13.1756 20.0588 12.517 19.8557 12.2605 19.6597C12.1237 19.555 11.298 18.2141 10.9022 17.5568C9.8397 15.4237 10.9022 14.0027 11.6871 13.6125Z" fill="url(#paint17_linear_16_2191)"/>
<path d="M11.6871 13.6125C13.4681 12.7271 14.776 13.7232 15.1886 14.2665C16.4745 16.2067 18.0084 18.4131 18.7173 19.586C20.6082 22.7139 16.7361 24.0717 16.7361 24.0717C13.1756 20.0588 12.517 19.8557 12.2605 19.6597C12.1237 19.555 11.298 18.2141 10.9022 17.5568C9.8397 15.4237 10.9022 14.0027 11.6871 13.6125Z" fill="url(#paint18_radial_16_2191)"/>
<path d="M11.6871 13.6125C13.4681 12.7271 14.776 13.7232 15.1886 14.2665C16.4745 16.2067 18.0084 18.4131 18.7173 19.586C20.6082 22.7139 16.7361 24.0717 16.7361 24.0717C13.1756 20.0588 12.517 19.8557 12.2605 19.6597C12.1237 19.555 11.298 18.2141 10.9022 17.5568C9.8397 15.4237 10.9022 14.0027 11.6871 13.6125Z" fill="url(#paint19_radial_16_2191)"/>
<path d="M11.6871 13.6125C13.4681 12.7271 14.776 13.7232 15.1886 14.2665C16.4745 16.2067 18.0084 18.4131 18.7173 19.586C20.6082 22.7139 16.7361 24.0717 16.7361 24.0717C13.1756 20.0588 12.517 19.8557 12.2605 19.6597C12.1237 19.555 11.298 18.2141 10.9022 17.5568C9.8397 15.4237 10.9022 14.0027 11.6871 13.6125Z" fill="url(#paint20_radial_16_2191)"/>
<path d="M11.6871 13.6125C13.4681 12.7271 14.776 13.7232 15.1886 14.2665C16.4745 16.2067 18.0084 18.4131 18.7173 19.586C20.6082 22.7139 16.7361 24.0717 16.7361 24.0717C13.1756 20.0588 12.517 19.8557 12.2605 19.6597C12.1237 19.555 11.298 18.2141 10.9022 17.5568C9.8397 15.4237 10.9022 14.0027 11.6871 13.6125Z" fill="url(#paint21_radial_16_2191)"/>
<path d="M9.56392 24.0768C7.42277 21.1628 10.52 19.1565 12.2605 19.6596C13.0852 20.1694 14.3576 21.4453 14.9011 22.02C18.353 25.3866 17.7776 26.4252 16.8121 27.5681C15.8766 28.3444 14.6604 28.9652 12.8643 27.5681C12.1399 27.0048 10.3493 25.1456 9.56392 24.0768Z" fill="url(#paint22_radial_16_2191)"/>
<path d="M9.56392 24.0768C7.42277 21.1628 10.52 19.1565 12.2605 19.6596C13.0852 20.1694 14.3576 21.4453 14.9011 22.02C18.353 25.3866 17.7776 26.4252 16.8121 27.5681C15.8766 28.3444 14.6604 28.9652 12.8643 27.5681C12.1399 27.0048 10.3493 25.1456 9.56392 24.0768Z" fill="url(#paint23_radial_16_2191)"/>
<path d="M9.56392 24.0768C7.42277 21.1628 10.52 19.1565 12.2605 19.6596C13.0852 20.1694 14.3576 21.4453 14.9011 22.02C18.353 25.3866 17.7776 26.4252 16.8121 27.5681C15.8766 28.3444 14.6604 28.9652 12.8643 27.5681C12.1399 27.0048 10.3493 25.1456 9.56392 24.0768Z" fill="url(#paint24_radial_16_2191)"/>
<path d="M9.56392 24.0768C7.42277 21.1628 10.52 19.1565 12.2605 19.6596C13.0852 20.1694 14.3576 21.4453 14.9011 22.02C18.353 25.3866 17.7776 26.4252 16.8121 27.5681C15.8766 28.3444 14.6604 28.9652 12.8643 27.5681C12.1399 27.0048 10.3493 25.1456 9.56392 24.0768Z" fill="url(#paint25_radial_16_2191)"/>
<path d="M9.56392 24.0768C7.42277 21.1628 10.52 19.1565 12.2605 19.6596C13.0852 20.1694 14.3576 21.4453 14.9011 22.02C18.353 25.3866 17.7776 26.4252 16.8121 27.5681C15.8766 28.3444 14.6604 28.9652 12.8643 27.5681C12.1399 27.0048 10.3493 25.1456 9.56392 24.0768Z" fill="url(#paint26_linear_16_2191)"/>
<path d="M23.7403 6.70245C25.3065 10.156 27.2285 14.3942 28.6715 16.0777C28.9531 15.4236 28.9229 14.3269 29.2449 11.6504C29.5357 9.23355 31.5289 9.00418 32.3842 9.17523C34.2758 9.56965 34.8521 11.4869 34.7889 12.1938C34.6884 13.3207 34.6835 13.2823 34.4771 16.0071C34.1752 19.9917 35.7146 23.0001 35.8555 26.4111C35.8555 32.8406 30.2209 35.9999 26.2767 35.9999C23.1214 35.9999 19.9646 33.981 18.7806 32.9714L12.8643 27.5682C12.1399 27.0047 10.3493 25.1456 9.56392 24.0767C7.42277 21.1629 10.52 19.1565 12.2605 19.6596C12.1236 19.555 11.2979 18.2141 10.9022 17.5567C9.83973 15.4236 10.9022 14.0027 11.6871 13.6125C13.468 12.727 14.776 13.7232 15.1886 14.2665C15.0309 13.9982 14.5366 12.9142 13.7397 10.926C12.9428 8.93776 14.226 7.70956 14.9672 7.34397C16.5772 6.5994 18.1066 7.54521 18.4889 8.39041C18.6761 8.80429 19.686 11.0163 20.1258 11.9918C19.7944 11.1829 19.1941 9.57584 18.9818 8.83312C18.5593 7.08237 19.5754 5.88169 20.2194 5.57312C21.1149 5.1441 22.9826 5.03172 23.7209 6.6598L23.7403 6.70245Z" fill="url(#paint27_radial_16_2191)"/>
<path d="M23.7403 6.70245C25.3065 10.156 27.2285 14.3942 28.6715 16.0777C28.9531 15.4236 28.9229 14.3269 29.2449 11.6504C29.5357 9.23355 31.5289 9.00418 32.3842 9.17523C34.2758 9.56965 34.8521 11.4869 34.7889 12.1938C34.6884 13.3207 34.6835 13.2823 34.4771 16.0071C34.1752 19.9917 35.7146 23.0001 35.8555 26.4111C35.8555 32.8406 30.2209 35.9999 26.2767 35.9999C23.1214 35.9999 19.9646 33.981 18.7806 32.9714L12.8643 27.5682C12.1399 27.0047 10.3493 25.1456 9.56392 24.0767C7.42277 21.1629 10.52 19.1565 12.2605 19.6596C12.1236 19.555 11.2979 18.2141 10.9022 17.5567C9.83973 15.4236 10.9022 14.0027 11.6871 13.6125C13.468 12.727 14.776 13.7232 15.1886 14.2665C15.0309 13.9982 14.5366 12.9142 13.7397 10.926C12.9428 8.93776 14.226 7.70956 14.9672 7.34397C16.5772 6.5994 18.1066 7.54521 18.4889 8.39041C18.6761 8.80429 19.686 11.0163 20.1258 11.9918C19.7944 11.1829 19.1941 9.57584 18.9818 8.83312C18.5593 7.08237 19.5754 5.88169 20.2194 5.57312C21.1149 5.1441 22.9826 5.03172 23.7209 6.6598L23.7403 6.70245Z" fill="url(#paint28_radial_16_2191)"/>
<path d="M23.7403 6.70245C25.3065 10.156 27.2284 14.3942 28.6715 16.0777C28.9531 15.4236 28.9229 14.3269 29.2449 11.6504C29.5357 9.23355 31.5289 9.00418 32.3842 9.17523C34.2758 9.56965 34.8521 11.4869 34.7889 12.1938C34.6884 13.3207 34.6835 13.2823 34.4771 16.0071C34.1752 19.9917 35.7146 23.0001 35.8555 26.4111C35.8555 32.8406 30.2209 35.9999 26.2767 35.9999C23.1214 35.9999 19.9646 33.981 18.7806 32.9714L12.8643 27.5682C12.1399 27.0047 10.3493 25.1456 9.56392 24.0767C7.42277 21.1629 10.52 19.1565 12.2605 19.6596C12.1236 19.555 11.2979 18.2141 10.9022 17.5567C9.83973 15.4236 10.9022 14.0027 11.6871 13.6125C13.468 12.727 14.776 13.7232 15.1886 14.2665C15.0309 13.9982 14.5366 12.9142 13.7397 10.926C12.9428 8.93776 14.226 7.70956 14.9672 7.34397C16.5772 6.5994 18.1066 7.54521 18.4889 8.39041C18.6761 8.80429 19.686 11.0163 20.1258 11.9918C19.7944 11.1829 19.1941 9.57584 18.9818 8.83312C18.5593 7.08237 19.5754 5.88169 20.2194 5.57312C21.1149 5.1441 22.9826 5.03172 23.7209 6.6598L23.7403 6.70245Z" fill="url(#paint29_radial_16_2191)"/>
<path d="M25.9234 11.3243C26.8899 13.2999 27.8556 15.0697 28.6715 16.0388C28.7549 16.9008 28.8303 17.3936 29.0365 18.1379C27.4072 16.5086 25.8316 12.9457 25.9234 11.3243Z" fill="url(#paint30_radial_16_2191)"/>
<path fill-rule="evenodd" clip-rule="evenodd" d="M2.85351 19.3483C3.2367 19.3483 3.54736 19.6589 3.54736 20.0422C3.54736 21.2016 4.01622 22.7534 5.0262 24.0061C6.01891 25.2375 7.52357 26.1702 9.63516 26.1702C10.0184 26.1702 10.329 26.4808 10.329 26.8641C10.329 27.2472 10.0184 27.5578 9.63516 27.5578C7.05795 27.5578 5.17179 26.3977 3.94588 24.8772C2.73722 23.378 2.15967 21.5188 2.15967 20.0422C2.15967 19.6589 2.47031 19.3483 2.85351 19.3483Z" fill="url(#paint31_radial_16_2191)"/>
<path fill-rule="evenodd" clip-rule="evenodd" d="M2.85351 19.3483C3.2367 19.3483 3.54736 19.6589 3.54736 20.0422C3.54736 21.2016 4.01622 22.7534 5.0262 24.0061C6.01891 25.2375 7.52357 26.1702 9.63516 26.1702C10.0184 26.1702 10.329 26.4808 10.329 26.8641C10.329 27.2472 10.0184 27.5578 9.63516 27.5578C7.05795 27.5578 5.17179 26.3977 3.94588 24.8772C2.73722 23.378 2.15967 21.5188 2.15967 20.0422C2.15967 19.6589 2.47031 19.3483 2.85351 19.3483Z" fill="url(#paint32_radial_16_2191)"/>
<path fill-rule="evenodd" clip-rule="evenodd" d="M2.85351 19.3483C3.2367 19.3483 3.54736 19.6589 3.54736 20.0422C3.54736 21.2016 4.01622 22.7534 5.0262 24.0061C6.01891 25.2375 7.52357 26.1702 9.63516 26.1702C10.0184 26.1702 10.329 26.4808 10.329 26.8641C10.329 27.2472 10.0184 27.5578 9.63516 27.5578C7.05795 27.5578 5.17179 26.3977 3.94588 24.8772C2.73722 23.378 2.15967 21.5188 2.15967 20.0422C2.15967 19.6589 2.47031 19.3483 2.85351 19.3483Z" fill="url(#paint33_radial_16_2191)"/>
<path fill-rule="evenodd" clip-rule="evenodd" d="M0.693852 21.8235C1.07705 21.8235 1.38769 22.1342 1.38769 22.5174C1.38769 24.9768 3.23003 28.2631 7.09881 28.2631C7.48201 28.2631 7.79265 28.5737 7.79265 28.9569C7.79265 29.3402 7.48201 29.6508 7.09881 29.6508C2.23395 29.6508 0 25.4914 0 22.5174C0 22.1342 0.310654 21.8235 0.693852 21.8235Z" fill="url(#paint34_radial_16_2191)"/>
<path fill-rule="evenodd" clip-rule="evenodd" d="M0.693852 21.8235C1.07705 21.8235 1.38769 22.1342 1.38769 22.5174C1.38769 24.9768 3.23003 28.2631 7.09881 28.2631C7.48201 28.2631 7.79265 28.5737 7.79265 28.9569C7.79265 29.3402 7.48201 29.6508 7.09881 29.6508C2.23395 29.6508 0 25.4914 0 22.5174C0 22.1342 0.310654 21.8235 0.693852 21.8235Z" fill="url(#paint35_radial_16_2191)"/>
<path fill-rule="evenodd" clip-rule="evenodd" d="M26.6831 10.2743C26.2998 10.2768 25.9871 9.96824 25.9847 9.58504C25.9771 8.4256 25.498 6.87687 24.48 5.63077C23.4792 4.40595 21.9685 3.48312 19.8569 3.49692C19.4738 3.49942 19.1611 3.19081 19.1585 2.80762C19.1561 2.42443 19.4647 2.11176 19.8479 2.10925C22.425 2.09241 24.3187 3.24022 25.5545 4.75274C26.7729 6.24398 27.3627 8.09928 27.3723 9.57598C27.3749 9.95916 27.0662 10.2718 26.6831 10.2743Z" fill="url(#paint36_radial_16_2191)"/>
<path fill-rule="evenodd" clip-rule="evenodd" d="M26.6831 10.2743C26.2998 10.2768 25.9871 9.96824 25.9847 9.58504C25.9771 8.4256 25.498 6.87687 24.48 5.63077C23.4792 4.40595 21.9685 3.48312 19.8569 3.49692C19.4738 3.49942 19.1611 3.19081 19.1585 2.80762C19.1561 2.42443 19.4647 2.11176 19.8479 2.10925C22.425 2.09241 24.3187 3.24022 25.5545 4.75274C26.7729 6.24398 27.3627 8.09928 27.3723 9.57598C27.3749 9.95916 27.0662 10.2718 26.6831 10.2743Z" fill="url(#paint37_radial_16_2191)"/>
<path fill-rule="evenodd" clip-rule="evenodd" d="M28.8251 7.78539C28.4418 7.7879 28.1291 7.47929 28.1267 7.0961C28.1106 4.63672 26.2469 1.36256 22.3781 1.38785C21.995 1.39034 21.6823 1.08174 21.6798 0.698553C21.6773 0.315355 21.9858 0.00269223 22.3691 0.000181865C27.2338 -0.0316161 29.4949 4.11315 29.5144 7.08703C29.5168 7.47022 29.2082 7.78289 28.8251 7.78539Z" fill="url(#paint38_radial_16_2191)"/>
<path fill-rule="evenodd" clip-rule="evenodd" d="M28.8251 7.78539C28.4418 7.7879 28.1291 7.47929 28.1267 7.0961C28.1106 4.63672 26.2469 1.36256 22.3781 1.38785C21.995 1.39034 21.6823 1.08174 21.6798 0.698553C21.6773 0.315355 21.9858 0.00269223 22.3691 0.000181865C27.2338 -0.0316161 29.4949 4.11315 29.5144 7.08703C29.5168 7.47022 29.2082 7.78289 28.8251 7.78539Z" fill="url(#paint39_radial_16_2191)"/>
<defs>
<radialGradient id="paint0_radial_16_2191" cx="0" cy="0" r="1" gradientUnits="userSpaceOnUse" gradientTransform="translate(22.3459 15.4021) rotate(60.1006) scale(27.1016 17.7052)">
<stop offset="0.00323036" stop-color="#FFC133"/>
<stop offset="0.697824" stop-color="#FFC53F"/>
<stop offset="0.797459" stop-color="#FFAD3E"/>
<stop offset="0.945275" stop-color="#EC7D58"/>
</radialGradient>
<radialGradient id="paint1_radial_16_2191" cx="0" cy="0" r="1" gradientUnits="userSpaceOnUse" gradientTransform="translate(35.8555 21.3561) rotate(-93.0118) scale(16.0793 6.15993)">
<stop offset="0.00323036" stop-color="#FFE849"/>
<stop offset="1" stop-color="#FFE647" stop-opacity="0"/>
</radialGradient>
<radialGradient id="paint2_radial_16_2191" cx="0" cy="0" r="1" gradientUnits="userSpaceOnUse" gradientTransform="translate(33.9245 9.85041) rotate(99.6824) scale(8.61123 3.29894)">
<stop offset="0.00323036" stop-color="#FFE849"/>
<stop offset="1" stop-color="#FFE647" stop-opacity="0"/>
</radialGradient>
<radialGradient id="paint3_radial_16_2191" cx="0" cy="0" r="1" gradientUnits="userSpaceOnUse" gradientTransform="translate(28.6714 15.0363) scale(3.48293 14.1246)">
<stop stop-color="#EE9F2C"/>
<stop offset="1" stop-color="#EE9F2C" stop-opacity="0"/>
</radialGradient>
<radialGradient id="paint4_radial_16_2191" cx="0" cy="0" r="1" gradientUnits="userSpaceOnUse" gradientTransform="translate(30.1997 20.5118) rotate(-94.0856) scale(5.86229 4.07182)">
<stop stop-color="#FFC93D"/>
<stop offset="1" stop-color="#FFC33A" stop-opacity="0"/>
</radialGradient>
<radialGradient id="paint5_radial_16_2191" cx="0" cy="0" r="1" gradientUnits="userSpaceOnUse" gradientTransform="translate(26.9245 11.6123) rotate(151.024) scale(6.16221 12.3787)">
<stop offset="0.563302" stop-color="#F09D2E" stop-opacity="0"/>
<stop offset="1" stop-color="#F09D2E"/>
</radialGradient>
<linearGradient id="paint6_linear_16_2191" x1="23.7768" y1="17.9254" x2="23.7768" y2="14.5975" gradientUnits="userSpaceOnUse">
<stop stop-color="#FFC337"/>
<stop offset="1" stop-color="#FFC337" stop-opacity="0"/>
</linearGradient>
<radialGradient id="paint7_radial_16_2191" cx="0" cy="0" r="1" gradientUnits="userSpaceOnUse" gradientTransform="translate(25.6371 6.71238) rotate(-13.4957) scale(4.13726 9.14902)">
<stop stop-color="#FFEC4C"/>
<stop offset="1" stop-color="#FFEC4C" stop-opacity="0"/>
</radialGradient>
<radialGradient id="paint8_radial_16_2191" cx="0" cy="0" r="1" gradientUnits="userSpaceOnUse" gradientTransform="translate(18.8822 5.29907) rotate(33.3064) scale(4.03905 3.13151)">
<stop stop-color="#D99F2B"/>
<stop offset="1" stop-color="#D99F2B" stop-opacity="0"/>
</radialGradient>
<linearGradient id="paint9_linear_16_2191" x1="19.5221" y1="13.4309" x2="21.5337" y2="12.4653" gradientUnits="userSpaceOnUse">
<stop stop-color="#A85300"/>
<stop offset="0.824742" stop-color="#A85300" stop-opacity="0"/>
</linearGradient>
<radialGradient id="paint10_radial_16_2191" cx="0" cy="0" r="1" gradientUnits="userSpaceOnUse" gradientTransform="translate(21.1173 13.5166) rotate(149.148) scale(5.9401 12.3958)">
<stop offset="0.563302" stop-color="#F09D2E" stop-opacity="0"/>
<stop offset="1" stop-color="#F09D2E"/>
</radialGradient>
<linearGradient id="paint11_linear_16_2191" x1="18.1396" y1="19.9587" x2="18.1396" y2="16.5628" gradientUnits="userSpaceOnUse">
<stop stop-color="#FFC337"/>
<stop offset="1" stop-color="#FFC337" stop-opacity="0"/>
</linearGradient>
<radialGradient id="paint12_radial_16_2191" cx="0" cy="0" r="1" gradientUnits="userSpaceOnUse" gradientTransform="translate(20.4328 9.72965) rotate(-33.8929) scale(3.94211 12.0017)">
<stop stop-color="#FFEC4C"/>
<stop offset="1" stop-color="#FFEC4C" stop-opacity="0"/>
</radialGradient>
<radialGradient id="paint13_radial_16_2191" cx="0" cy="0" r="1" gradientUnits="userSpaceOnUse" gradientTransform="translate(17.4301 14.5975) rotate(-24.9048) scale(4.96774 22.6833)">
<stop offset="0.597587" stop-color="#F09D2E" stop-opacity="0"/>
<stop offset="1" stop-color="#F09D2E"/>
</radialGradient>
<radialGradient id="paint14_radial_16_2191" cx="0" cy="0" r="1" gradientUnits="userSpaceOnUse" gradientTransform="translate(12.9244 7.07443) rotate(32.6006) scale(4.10684 3.27322)">
<stop stop-color="#D99F2B"/>
<stop offset="1" stop-color="#D99F2B" stop-opacity="0"/>
</radialGradient>
<linearGradient id="paint15_linear_16_2191" x1="14.7347" y1="15.4021" x2="16.0731" y2="14.4663" gradientUnits="userSpaceOnUse">
<stop stop-color="#A85300"/>
<stop offset="0.824742" stop-color="#A85300" stop-opacity="0"/>
</linearGradient>
<radialGradient id="paint16_radial_16_2191" cx="0" cy="0" r="1" gradientUnits="userSpaceOnUse" gradientTransform="translate(17.6702 18.6658) rotate(137.351) scale(4.92105 9.63638)">
<stop offset="0.563302" stop-color="#F09D2E" stop-opacity="0"/>
<stop offset="1" stop-color="#F09D2E"/>
</radialGradient>
<linearGradient id="paint17_linear_16_2191" x1="14.8462" y1="24.0717" x2="14.8462" y2="21.222" gradientUnits="userSpaceOnUse">
<stop stop-color="#FFC337"/>
<stop offset="1" stop-color="#FFC337" stop-opacity="0"/>
</linearGradient>
<radialGradient id="paint18_radial_16_2191" cx="0" cy="0" r="1" gradientUnits="userSpaceOnUse" gradientTransform="translate(16.4625 14.4415) rotate(-12.2956) scale(3.74798 7.93923)">
<stop stop-color="#FFEC4C"/>
<stop offset="1" stop-color="#FFEC4C" stop-opacity="0"/>
</radialGradient>
<radialGradient id="paint19_radial_16_2191" cx="0" cy="0" r="1" gradientUnits="userSpaceOnUse" gradientTransform="translate(14.1732 19.5729) rotate(-40.2165) scale(5.21331 26.6522)">
<stop offset="0.597587" stop-color="#F09D2E" stop-opacity="0"/>
<stop offset="1" stop-color="#F09D2E"/>
</radialGradient>
<radialGradient id="paint20_radial_16_2191" cx="0" cy="0" r="1" gradientUnits="userSpaceOnUse" gradientTransform="translate(9.89983 13.2599) rotate(29.5034) scale(3.77025 2.83759)">
<stop stop-color="#D99F2B"/>
<stop offset="1" stop-color="#D99F2B" stop-opacity="0"/>
</radialGradient>
<radialGradient id="paint21_radial_16_2191" cx="0" cy="0" r="1" gradientUnits="userSpaceOnUse" gradientTransform="translate(11.8782 20.6723) rotate(-45.7639) scale(2.13372 9.63397)">
<stop stop-color="#A85300"/>
<stop offset="0.824742" stop-color="#A85300" stop-opacity="0"/>
</radialGradient>
<radialGradient id="paint22_radial_16_2191" cx="0" cy="0" r="1" gradientUnits="userSpaceOnUse" gradientTransform="translate(16.5757 24.2627) rotate(143.369) scale(4.83795 9.10288)">
<stop offset="0.563302" stop-color="#F09D2E" stop-opacity="0"/>
<stop offset="1" stop-color="#F09D2E"/>
</radialGradient>
<radialGradient id="paint23_radial_16_2191" cx="0" cy="0" r="1" gradientUnits="userSpaceOnUse" gradientTransform="translate(15.2804 20.6053) rotate(-9.97765) scale(3.98833 6.92871)">
<stop stop-color="#FFEC4C"/>
<stop offset="1" stop-color="#FFEC4C" stop-opacity="0"/>
</radialGradient>
<radialGradient id="paint24_radial_16_2191" cx="0" cy="0" r="1" gradientUnits="userSpaceOnUse" gradientTransform="translate(12.8247 25.048) rotate(-34.3137) scale(5.16985 24.9596)">
<stop offset="0.597587" stop-color="#F09D2E" stop-opacity="0"/>
<stop offset="1" stop-color="#F09D2E"/>
</radialGradient>
<radialGradient id="paint25_radial_16_2191" cx="0" cy="0" r="1" gradientUnits="userSpaceOnUse" gradientTransform="translate(8.24097 19.5823) rotate(24.5478) scale(3.86944 2.56768)">
<stop stop-color="#D99F2B"/>
<stop offset="1" stop-color="#D99F2B" stop-opacity="0"/>
</radialGradient>
<linearGradient id="paint26_linear_16_2191" x1="16.7864" y1="33.1034" x2="13.5466" y2="26.4758" gradientUnits="userSpaceOnUse">
<stop stop-color="#FFC337"/>
<stop offset="1" stop-color="#FFC337" stop-opacity="0"/>
</linearGradient>
<radialGradient id="paint27_radial_16_2191" cx="0" cy="0" r="1" gradientUnits="userSpaceOnUse" gradientTransform="translate(28.3727 13.7124) rotate(129.014) scale(22.3676 36.1732)">
<stop offset="0.872168" stop-color="#F6814F" stop-opacity="0"/>
<stop offset="1" stop-color="#F7814F"/>
</radialGradient>
<radialGradient id="paint28_radial_16_2191" cx="0" cy="0" r="1" gradientUnits="userSpaceOnUse" gradientTransform="translate(23.706 13.9538) rotate(76.293) scale(23.769 26.0799)">
<stop offset="0.853453" stop-color="#F6814F" stop-opacity="0"/>
<stop offset="1" stop-color="#F7814F"/>
</radialGradient>
<radialGradient id="paint29_radial_16_2191" cx="0" cy="0" r="1" gradientUnits="userSpaceOnUse" gradientTransform="translate(29.0968 7.91929) rotate(64.44) scale(4.1027 3.65749)">
<stop stop-color="#D99F2B"/>
<stop offset="1" stop-color="#D99F2B" stop-opacity="0"/>
</radialGradient>
<radialGradient id="paint30_radial_16_2191" cx="0" cy="0" r="1" gradientUnits="userSpaceOnUse" gradientTransform="translate(29.0365 15.7642) rotate(149.254) scale(1.56235 4.8345)">
<stop offset="0.200941" stop-color="#B4813D"/>
<stop offset="1" stop-color="#B4813D" stop-opacity="0"/>
</radialGradient>
<radialGradient id="paint31_radial_16_2191" cx="0" cy="0" r="1" gradientUnits="userSpaceOnUse" gradientTransform="translate(3.84067 19.7202) rotate(62.071) scale(6.83871 10.1421)">
<stop stop-color="#419FFD"/>
<stop offset="1" stop-color="#4B6DCB"/>
</radialGradient>
<radialGradient id="paint32_radial_16_2191" cx="0" cy="0" r="1" gradientUnits="userSpaceOnUse" gradientTransform="translate(1.90675 20.2298) rotate(2.38594) scale(0.966363 2.03372)">
<stop stop-color="#5486C7"/>
<stop offset="1" stop-color="#5486C7" stop-opacity="0"/>
</radialGradient>
<radialGradient id="paint33_radial_16_2191" cx="0" cy="0" r="1" gradientUnits="userSpaceOnUse" gradientTransform="translate(9.14819 25.7412) rotate(111.801) scale(0.974909 2.86757)">
<stop stop-color="#5486C7"/>
<stop offset="1" stop-color="#5486C7" stop-opacity="0"/>
</radialGradient>
<radialGradient id="paint34_radial_16_2191" cx="0" cy="0" r="1" gradientUnits="userSpaceOnUse" gradientTransform="translate(4.3407 23.2873) rotate(94.7123) scale(5.40913 9.09492)">
<stop stop-color="#419FFD"/>
<stop offset="1" stop-color="#4B6DCB"/>
</radialGradient>
<radialGradient id="paint35_radial_16_2191" cx="0" cy="0" r="1" gradientUnits="userSpaceOnUse" gradientTransform="translate(-0.24124 22.6639) rotate(2.38479) scale(0.921802 1.93901)">
<stop stop-color="#5486C7"/>
<stop offset="1" stop-color="#5486C7" stop-opacity="0"/>
</radialGradient>
<radialGradient id="paint36_radial_16_2191" cx="0" cy="0" r="1" gradientUnits="userSpaceOnUse" gradientTransform="translate(21.368 0.611659) rotate(60.1958) scale(5.74576 8.52122)">
<stop stop-color="#419FFD"/>
<stop offset="1" stop-color="#4B6DCB"/>
</radialGradient>
<radialGradient id="paint37_radial_16_2191" cx="0" cy="0" r="1" gradientUnits="userSpaceOnUse" gradientTransform="translate(19.0022 2.69229) rotate(18.8618) scale(0.826634 1.33051)">
<stop stop-color="#4D8AC1"/>
<stop offset="1" stop-color="#4D8AC1" stop-opacity="0"/>
</radialGradient>
<radialGradient id="paint38_radial_16_2191" cx="0" cy="0" r="1" gradientUnits="userSpaceOnUse" gradientTransform="translate(23.7871 -1.42746) rotate(60.69) scale(7.13796 10.5887)">
<stop stop-color="#419FFD"/>
<stop offset="1" stop-color="#4B6DCB"/>
</radialGradient>
<radialGradient id="paint39_radial_16_2191" cx="0" cy="0" r="1" gradientUnits="userSpaceOnUse" gradientTransform="translate(21.5305 0.556273) rotate(18.8531) scale(0.788476 1.26861)">
<stop stop-color="#4D8AC1"/>
<stop offset="1" stop-color="#4D8AC1" stop-opacity="0"/>
</radialGradient>
</defs>
</svg>
